<mxfile host="www.draw.io" modified="2019-11-20T13:59:36.925Z" agent="Mozilla/5.0 (Macintosh; Intel Mac OS X 10_14_6) AppleWebKit/537.36 (KHTML, like Gecko) Chrome/78.0.3904.97 Safari/537.36" etag="FFZMk3rQlUZUT3lwbg30" version="12.2.7" type="github" pages="1">
  <diagram id="dEuHh4WSfkrW-Y1oUoQa" name="Page-1">
    <mxGraphModel dx="934" dy="673" grid="1" gridSize="10" guides="1" tooltips="1" connect="1" arrows="1" fold="1" page="1" pageScale="1" pageWidth="1900" pageHeight="1100" math="0" shadow="0">
      <root>
        <mxCell id="0"/>
        <mxCell id="1" parent="0"/>
        <mxCell id="l8i2_ME683afChvHRcBX-1" value="Register" style="ellipse;whiteSpace=wrap;html=1;" vertex="1" parent="1">
          <mxGeometry x="250" y="100" width="140" height="70" as="geometry"/>
        </mxCell>
        <mxCell id="l8i2_ME683afChvHRcBX-2" value="Participant" style="shape=umlActor;verticalLabelPosition=bottom;labelBackgroundColor=#ffffff;verticalAlign=top;html=1;" vertex="1" parent="1">
          <mxGeometry x="70" y="170" width="30" height="60" as="geometry"/>
        </mxCell>
        <mxCell id="l8i2_ME683afChvHRcBX-5" value="" style="endArrow=open;endFill=1;endSize=12;html=1;entryX=0;entryY=0.5;entryDx=0;entryDy=0;" edge="1" parent="1" target="l8i2_ME683afChvHRcBX-1">
          <mxGeometry width="160" relative="1" as="geometry">
            <mxPoint x="110" y="200" as="sourcePoint"/>
            <mxPoint x="230" y="270" as="targetPoint"/>
          </mxGeometry>
        </mxCell>
        <mxCell id="l8i2_ME683afChvHRcBX-7" value="Login" style="ellipse;whiteSpace=wrap;html=1;" vertex="1" parent="1">
          <mxGeometry x="450" y="180" width="140" height="70" as="geometry"/>
        </mxCell>
        <mxCell id="l8i2_ME683afChvHRcBX-8" value="&amp;lt;&amp;lt;includes&amp;gt;&amp;gt;" style="html=1;verticalAlign=bottom;endArrow=open;dashed=1;endSize=8;exitX=0.807;exitY=0.9;exitDx=0;exitDy=0;exitPerimeter=0;" edge="1" parent="1" source="l8i2_ME683afChvHRcBX-1" target="l8i2_ME683afChvHRcBX-7">
          <mxGeometry relative="1" as="geometry">
            <mxPoint x="140" y="320" as="sourcePoint"/>
            <mxPoint x="60" y="320" as="targetPoint"/>
          </mxGeometry>
        </mxCell>
        <mxCell id="l8i2_ME683afChvHRcBX-10" value="" style="endArrow=open;endFill=1;endSize=12;html=1;entryX=-0.007;entryY=0.4;entryDx=0;entryDy=0;entryPerimeter=0;" edge="1" parent="1" target="l8i2_ME683afChvHRcBX-11">
          <mxGeometry width="160" relative="1" as="geometry">
            <mxPoint x="110" y="200" as="sourcePoint"/>
            <mxPoint x="250" y="260" as="targetPoint"/>
          </mxGeometry>
        </mxCell>
        <mxCell id="l8i2_ME683afChvHRcBX-11" value="Questionnaire" style="ellipse;whiteSpace=wrap;html=1;" vertex="1" parent="1">
          <mxGeometry x="250" y="230" width="140" height="70" as="geometry"/>
        </mxCell>
        <mxCell id="l8i2_ME683afChvHRcBX-12" value="&amp;lt;&amp;lt;includes&amp;gt;&amp;gt;" style="html=1;verticalAlign=bottom;endArrow=open;dashed=1;endSize=8;exitX=1;exitY=0.5;exitDx=0;exitDy=0;entryX=0.029;entryY=0.657;entryDx=0;entryDy=0;entryPerimeter=0;" edge="1" parent="1" source="l8i2_ME683afChvHRcBX-11" target="l8i2_ME683afChvHRcBX-7">
          <mxGeometry relative="1" as="geometry">
            <mxPoint x="330" y="180" as="sourcePoint"/>
            <mxPoint x="459.4201600163233" y="217.46373053104094" as="targetPoint"/>
          </mxGeometry>
        </mxCell>
        <mxCell id="l8i2_ME683afChvHRcBX-13" value="Health Care Partner" style="shape=umlActor;verticalLabelPosition=bottom;labelBackgroundColor=#ffffff;verticalAlign=top;html=1;" vertex="1" parent="1">
          <mxGeometry x="70" y="390" width="30" height="60" as="geometry"/>
        </mxCell>
        <mxCell id="l8i2_ME683afChvHRcBX-19" value="Confirm Eligibility" style="ellipse;whiteSpace=wrap;html=1;" vertex="1" parent="1">
          <mxGeometry x="250" y="390" width="140" height="70" as="geometry"/>
        </mxCell>
        <mxCell id="l8i2_ME683afChvHRcBX-20" value="" style="endArrow=open;endFill=1;endSize=12;html=1;entryX=0;entryY=0.5;entryDx=0;entryDy=0;" edge="1" parent="1" target="l8i2_ME683afChvHRcBX-19">
          <mxGeometry width="160" relative="1" as="geometry">
            <mxPoint x="100" y="425" as="sourcePoint"/>
            <mxPoint x="259.02" y="268" as="targetPoint"/>
          </mxGeometry>
        </mxCell>
      </root>
    </mxGraphModel>
  </diagram>
</mxfile>
